<svg width="70" height="70" viewBox="0 0 70 70" fill="none" xmlns="http://www.w3.org/2000/svg">
<path fill-rule="evenodd" clip-rule="evenodd" d="M35.019 69.2005C34.5259 69.1988 34.0408 69.0754 33.6069 68.8411C28.7718 66.2224 4.68167 51.6256 4.68167 20.8689V13.2297C4.67534 11.8975 5.72934 10.8018 7.06074 10.7564C16.6092 10.3685 25.8119 7.07532 33.4386 1.31709C34.3255 0.633887 35.5613 0.633887 36.4481 1.31709C44.114 7.09185 53.3613 10.3863 62.9517 10.7593C64.2743 10.8224 65.3154 11.9112 65.3193 13.2353V20.8689C65.3193 52.0193 41.2291 66.3051 36.3996 68.8525C35.9752 69.0808 35.5009 69.2003 35.019 69.2005ZM9.06313 15.0182V20.869C9.1088 39.09 19.0529 55.8467 35.0247 64.6165C51.079 55.9388 61.0425 39.118 60.9377 20.8688V15.0238C51.5827 14.3277 42.5952 11.0905 34.9448 5.66161C27.3279 11.0739 18.3802 14.3086 9.06313 15.0182ZM34.3176 11.3027C27.9386 15.2095 20.8411 17.7979 13.4447 18.9148V20.8689C13.4078 36.3259 21.2835 50.7267 34.3176 59.0352V11.3027Z" fill="white"/>
</svg>
